<?xml version="1.0" encoding="utf-8"?>
<!-- Generator: Adobe Illustrator 27.5.0, SVG Export Plug-In . SVG Version: 6.00 Build 0)  -->
<svg version="1.1" id="Layer_1" xmlns="http://www.w3.org/2000/svg" xmlns:xlink="http://www.w3.org/1999/xlink" x="0px" y="0px"
	 viewBox="0 0 1422 800" style="enable-background:new 0 0 1422 800;" xml:space="preserve">
<g>
	<defs>
		<rect id="SVGID_1_" width="1422" height="800"/>
	</defs>
	<clipPath id="SVGID_00000132791119277564854900000007622346565809191306_">
		<use xlink:href="#SVGID_1_"  style="overflow:visible;"/>
	</clipPath>
	<g style="clip-path:url(#SVGID_00000132791119277564854900000007622346565809191306_);">
		
			<rect x="101.5" y="-28.698" transform="matrix(0.7071 -0.7071 0.7071 0.7071 29.168 72.4178)" style="fill:#231F20;" width="1" height="59.397"/>
		
			<rect x="269.5" y="-28.698" transform="matrix(0.7071 -0.7071 0.7071 0.7071 78.3741 191.2117)" style="fill:#231F20;" width="1" height="59.397"/>
		
			<rect x="521.5" y="-28.698" transform="matrix(0.7071 -0.7071 0.7071 0.7071 152.1832 369.4026)" style="fill:#231F20;" width="1" height="59.397"/>
		<path style="fill:#231F20;" d="M416.646,64.354l42,42l42,42l42,42l0.707-0.707L501.707,148l41.646-41.646L543,106l0.354-0.354
			l-42-42l-42-42l-42-42L417-20l-0.354-0.354L375,21.293l-41.646-41.646l-0.707,0.707l42,42L416.646,64.354z M458.646,22.354l42,42
			L542.293,106L501,147.293l-41.646-41.646l-42-42L375.707,22L417-19.293L458.646,22.354z"/>
		<polygon style="fill:#231F20;" points="416.646,22.354 458.646,64.354 500.646,106.354 501.354,105.646 459.354,63.646 
			417.354,21.646 		"/>
		<path style="fill:#231F20;" d="M879,63.293l-41.646-41.646L837,22l-0.354-0.354l-42,42l0.707,0.707L837,22.707L878.293,64
			l-41.646,41.646l0.707,0.707L879,64.707l41.646,41.646L921,106l0.354,0.354L963,64.707L1004.293,106l-41.646,41.646L921,189.293
			l-41.646-41.646L879,148l-0.354-0.354l-42,42L837,190l-0.354,0.354l42,42l42,42L962.293,316l-41.646,41.646l0.707,0.707
			L963,316.707l41.646,41.646l0.707-0.707L963.707,316l41.646-41.646l42-42L1047,232l0.354-0.354l-42-42L963.707,148L1005,106.707
			l41.646,41.646l42,42l0.707-0.707L1047.707,148l41.646-41.646L1089,106l0.354-0.354l-42-42L1047,64l-0.354-0.354L1005,105.293
			l-41.646-41.646L921.707,22l41.646-41.646l-0.707-0.707L921,21.293l-41.646-41.646l-0.707,0.707L920.293,22L879,63.293z
			 M837.707,190L879,148.707L920.293,190L879,231.293L837.707,190z M879.707,232L921,190.707L962.293,232L921,273.293L879.707,232z
			 M963,232.707L1004.293,274L963,315.293L921.707,274L963,232.707z M1046.293,232L1005,273.293l-41.646-41.646L921.707,190
			L963,148.707l41.646,41.646L1046.293,232z M1088.293,106L1047,147.293L1005.707,106L1047,64.707L1088.293,106z M879.707,64
			L921,22.707L962.293,64L921,105.293L879.707,64z"/>
		<path style="fill:#231F20;" d="M1172.646,64.354L1173,64l0.354,0.354L1215,22.707l41.646,41.646l0.707-0.707L1215.707,22
			l41.646-41.646l-0.707-0.707L1215,21.293l-41.646-41.646L1173-20l-0.354-0.354L1131,21.293l-41.646-41.646l-0.707,0.707l42,42
			L1172.646,64.354z M1214.293,22L1173,63.293L1131.707,22L1173-19.293L1214.293,22z"/>
		
			<rect x="1361.5" y="13.302" transform="matrix(0.7071 -0.7071 0.7071 0.7071 368.515 975.6738)" style="fill:#231F20;" width="1" height="59.397"/>
		<path style="fill:#231F20;" d="M1383.707,22l41.646-41.646l-0.707-0.707L1383,21.293l-41.646-41.646L1341-20l-0.354-0.354l-42,42
			L1299,22l-0.354,0.354l42,42l42,42L1424.293,148l-41.646,41.646L1383,190l-0.354,0.354l42,42l0.707-0.707L1383.707,190
			l41.646-41.646L1425,148l0.354-0.354L1383.707,106l41.646-41.646L1425,64l0.354-0.354L1383.707,22z M1341.354,63.646L1299.707,22
			L1341-19.293l41.646,41.646L1424.293,64L1383,105.293L1341.354,63.646z"/>
		
			<rect x="227.5" y="55.302" transform="matrix(0.7071 -0.7071 0.7071 0.7071 6.6756 186.1163)" style="fill:#231F20;" width="1" height="59.397"/>
		
			<rect x="353.5" y="55.302" transform="matrix(0.7071 -0.7071 0.7071 0.7071 43.5801 275.2117)" style="fill:#231F20;" width="1" height="59.397"/>
		
			<rect x="59.5" y="97.302" transform="matrix(0.7071 -0.7071 0.7071 0.7071 -72.229 79.6238)" style="fill:#231F20;" width="1" height="59.397"/>
		<path style="fill:#231F20;" d="M1299,106l-0.354-0.354l-42,42L1257,148l-0.354,0.354l42,42l42,42l0.707-0.707L1299.707,190
			l41.646-41.646L1341,148l0.354-0.354l-42-42L1299,106z M1257.707,148L1299,106.707L1340.293,148L1299,189.293L1257.707,148z"/>
		
			<rect x="143.5" y="181.302" transform="matrix(0.7071 -0.7071 0.7071 0.7071 -107.0229 163.6238)" style="fill:#231F20;" width="1" height="59.397"/>
		
			<rect x="983.5" y="181.302" transform="matrix(0.7071 -0.7071 0.7071 0.7071 139.0074 757.5936)" style="fill:#231F20;" width="1" height="59.397"/>
		<path style="fill:#231F20;" d="M1383.354,231.646L1341.707,190l41.646-41.646L1383,148l0.354-0.354l-42-42l-42-42L1257.707,22
			l41.646-41.646l-0.707-0.707l-42,42L1257,22l-0.354,0.354L1298.293,64L1257,105.293l-41.646-41.646L1215,64l-0.354-0.354
			L1173,105.293l-41.646-41.646l-42-42l-42-42l-0.707,0.707l42,42l42,42l42,42L1214.293,148l-41.646,41.646l-42,42l-42,42
			l0.707,0.707L1131,232.707L1172.293,274l-41.646,41.646L1131,316l-0.354,0.354l42,42l42,42l0.707-0.707L1173.707,358
			l41.646-41.646l-0.707-0.707L1173,357.293L1131.707,316l41.646-41.646L1215,232.707l41.646,41.646L1298.293,316l-41.646,41.646
			L1257,358l-0.354,0.354L1298.293,400l-41.646,41.646l0.707,0.707l42-42L1299,400l0.354-0.354L1257.707,358L1299,316.707
			l41.646,41.646l42,42L1424.293,442L1383,483.293l-41.646-41.646l-0.707,0.707L1382.293,484l-41.646,41.646L1341,526l-0.354,0.354
			l42,42l42,42l0.707-0.707L1383.707,568l41.646-41.646L1425,526l0.354-0.354L1383.707,484l41.646-41.646L1425,442l0.354-0.354
			L1383.707,400l41.646-41.646L1425,358l0.354-0.354L1383.707,316l41.646-41.646L1425,274l0.354-0.354L1383.354,231.646z
			 M1424.293,274L1383,315.293L1341.707,274L1383,232.707L1424.293,274z M1299,315.293L1257.707,274L1299,232.707L1340.293,274
			L1299,315.293z M1340.646,106.354L1382.293,148l-41.646,41.646L1341,190l-0.354,0.354L1382.293,232L1341,273.293l-41.646-41.646
			l-42-42L1215.707,148l41.646-41.646L1299,64.707L1340.646,106.354z M1214.293,232L1173,273.293L1131.707,232L1173,190.707
			L1214.293,232z M1215,231.293L1173.707,190L1215,148.707L1256.293,190L1215,231.293z M1256.293,106L1215,147.293L1173.707,106
			L1215,64.707L1256.293,106z M1215.707,232L1257,190.707L1298.293,232L1257,273.293L1215.707,232z M1341.354,357.646L1299.707,316
			L1341,274.707l41.646,41.646L1424.293,358L1383,399.293L1341.354,357.646z M1341.707,526L1383,484.707L1424.293,526L1383,567.293
			L1341.707,526z"/>
		
			<rect x="-11.698" y="294.5" transform="matrix(0.7071 -0.7071 0.7071 0.7071 -203.3244 99.1314)" style="fill:#231F20;" width="59.397" height="1"/>
		<path style="fill:#231F20;" d="M164.646,316.354l42,42L207,358l0.354,0.354l42-42L249,316l0.354-0.354l-42-42L207,274
			l-0.354-0.354L165,315.293l-41.646-41.646l-42-42l-42-42l-0.707,0.707l42,42l42,42L164.646,316.354z M248.293,316L207,357.293
			L165.707,316L207,274.707L248.293,316z"/>
		<polygon style="fill:#231F20;" points="668.646,316.354 710.646,358.354 752.646,400.354 753.354,399.646 711.354,357.646 
			669.354,315.646 		"/>
		
			<rect x="1067.5" y="307.302" transform="matrix(0.7071 -0.7071 0.7071 0.7071 74.515 853.8951)" style="fill:#231F20;" width="1" height="59.397"/>
		
			<rect x="1361.5" y="307.302" transform="matrix(0.7071 -0.7071 0.7071 0.7071 160.6256 1061.7844)" style="fill:#231F20;" width="1" height="59.397"/>
		<polygon style="fill:#231F20;" points="81.354,400.354 123.354,358.354 122.646,357.646 81,399.293 39.354,357.646 
			38.646,358.354 80.293,400 38.646,441.646 39.354,442.354 		"/>
		<path style="fill:#231F20;" d="M248.646,400.354L290.293,442L249,483.293l-41.646-41.646L207,442l-0.354-0.354L165,483.293
			l-41.646-41.646l-0.707,0.707l42,42l42,42l42,42l42,42l0.707-0.707l-42-42L207.707,526L249,484.707l41.646,41.646L291,526
			l0.354,0.354l42-42L333,484l0.354-0.354l-42-42l-42-42L248.646,400.354z M165.707,484L207,442.707L248.293,484L207,525.293
			L165.707,484z M332.293,484L291,525.293L249.707,484L291,442.707L332.293,484z"/>
		<polygon style="fill:#231F20;" points="417.354,441.646 375.354,399.646 333.354,357.646 332.646,358.354 374.646,400.354 
			416.646,442.354 		"/>
		
			<rect x="899.5" y="391.302" transform="matrix(0.7071 -0.7071 0.7071 0.7071 -34.0881 759.7042)" style="fill:#231F20;" width="1" height="59.397"/>
		
			<rect x="983.5" y="391.302" transform="matrix(0.7071 -0.7071 0.7071 0.7071 -9.485 819.1011)" style="fill:#231F20;" width="1" height="59.397"/>
		<polygon style="fill:#231F20;" points="1088.646,441.646 1089,442 1088.646,442.354 1130.646,484.354 1131.354,483.646 
			1089.707,442 1131.354,400.354 1130.646,399.646 		"/>
		<polygon style="fill:#231F20;" points="542.646,442.354 584.293,484 543,525.293 501.354,483.646 500.646,484.354 
			542.646,526.354 584.646,568.354 585.354,567.646 543.707,526 585.354,484.354 585,484 585.354,483.646 543.354,441.646 		"/>
		
			<rect x="17.5" y="475.302" transform="matrix(0.7071 -0.7071 0.7071 0.7071 -351.8168 160.639)" style="fill:#231F20;" width="1" height="59.397"/>
		<path style="fill:#231F20;" d="M39,568l0.354,0.354l42-42L81,526l0.354-0.354L39.707,484L81,442.707l41.646,41.646l42,42l42,42
			L248.293,610l-41.646,41.646L165,693.293l-41.646-41.646l-42-42l-0.707,0.707l42,42l42,42l42,42L207,736l0.354,0.354l42-42
			l-0.707-0.707L207,735.293L165.707,694l41.646-41.646L249,610.707l41.646,41.646l42,42l0.707-0.707L291.707,652l41.646-41.646
			L375,568.707l41.646,41.646l0.707-0.707l-42-42L333.707,526L375,484.707l41.646,41.646l0.707-0.707l-42-42l-42-42l-42-42
			L249.707,358l41.646-41.646L291,316l0.354-0.354L249.707,274L291,232.707l41.646,41.646l42,42l42,42l42,42l0.707-0.707l-42-42
			l-42-42l-42-42L291.707,232l41.646-41.646L333,190l0.354-0.354l-42-42l-0.707,0.707L332.293,190l-41.646,41.646L249,273.293
			l-41.646-41.646l-42-42l-42-42l-42-42L39.707,64L81,22.707l41.646,41.646l42,42l42,42l42,42l0.707-0.707l-42-42l-42-42L123.707,64
			l41.646-41.646L165,22l0.354-0.354l-42-42l-0.707,0.707L164.293,22L123,63.293L81.354,21.646l-42-42L39-20l-0.354-0.354l-42,42
			L-3,22l-0.354,0.354L38.293,64l-41.646,41.646L-3,106l-0.354,0.354L38.293,148l-41.646,41.646L-3,190l-0.354,0.354L38.293,232
			l-41.646,41.646l0.707,0.707L39,232.707L80.293,274l-41.646,41.646l-42,42L-3,358l-0.354,0.354L38.293,400l-41.646,41.646L-3,442
			l-0.354,0.354l42,42L80.293,526L39,567.293l-41.646-41.646l-0.707,0.707l42,42L39,568z M333,526.707L374.293,568L333,609.293
			L291.707,568L333,526.707z M332.646,442.354L374.293,484l-41.646,41.646L291,567.293l-41.646-41.646l-0.707,0.707l42,42
			L332.293,610L291,651.293l-41.646-41.646l-42-42l-42-42l-42-42L81.707,442L123,400.707l41.646,41.646L165,442l0.354,0.354
			L207,400.707l41.646,41.646l0.707-0.707L207.707,400L249,358.707l41.646,41.646L332.646,442.354z M165,358.707L206.293,400
			L165,441.293L123.707,400L165,358.707z M164.646,190.354L206.293,232L165,273.293l-41.646-41.646L81.707,190L123,148.707
			L164.646,190.354z M122.293,148L81,189.293l-41.646-41.646L-2.293,106L39,64.707l41.646,41.646L122.293,148z M80.293,22L39,63.293
			L-2.293,22L39-19.293L80.293,22z M-2.293,190L39,148.707l41.646,41.646l42,42l42,42L165,274l0.354,0.354L207,232.707
			l41.646,41.646L290.293,316l-41.646,41.646L207,399.293l-41.646-41.646l-42-42l-42-42l-42-42L-2.293,190z M81,357.293L39.707,316
			L81,274.707L122.293,316L81,357.293z M-2.293,442l41.646-41.646L39,400l0.354-0.354L-2.293,358L39,316.707l41.646,41.646L81,358
			l0.354,0.354L123,316.707L164.293,358l-41.646,41.646l-42,42L39,483.293L-2.293,442z"/>
		
			<rect x="1109.5" y="517.302" transform="matrix(0.7071 -0.7071 0.7071 0.7071 -61.6759 945.1011)" style="fill:#231F20;" width="1" height="59.397"/>
		
			<rect x="1235.5" y="517.302" transform="matrix(0.7071 -0.7071 0.7071 0.7071 -24.7714 1034.1965)" style="fill:#231F20;" width="1" height="59.397"/>
		<path style="fill:#231F20;" d="M1299.354,567.646l-42-42l-42-42l-42-42l-0.707,0.707L1214.293,484l-41.646,41.646L1173,526
			l-0.354,0.354l42,42l42,42L1257,610l0.354,0.354l42-42L1299,568L1299.354,567.646z M1215.354,567.646L1173.707,526L1215,484.707
			l41.646,41.646L1298.293,568L1257,609.293L1215.354,567.646z"/>
		
			<rect x="143.5" y="559.302" transform="matrix(0.7071 -0.7071 0.7071 0.7071 -374.3093 274.3375)" style="fill:#231F20;" width="1" height="59.397"/>
		
			<rect x="899.5" y="559.302" transform="matrix(0.7071 -0.7071 0.7071 0.7071 -152.882 808.9102)" style="fill:#231F20;" width="1" height="59.397"/>
		
			<rect x="1067.5" y="559.302" transform="matrix(0.7071 -0.7071 0.7071 0.7071 -103.6759 927.7042)" style="fill:#231F20;" width="1" height="59.397"/>
		<path style="fill:#231F20;" d="M1341.354,567.646L1299.707,526l41.646-41.646L1341,484l0.354-0.354L1299.707,442L1341,400.707
			l41.646,41.646l0.707-0.707l-42-42l-42-42l-0.707,0.707L1340.293,400l-41.646,41.646L1257,483.293L1215.707,442l41.646-41.646
			L1257,400l0.354-0.354L1215.707,358l41.646-41.646L1257,316l0.354-0.354l-42-42L1215,274l-0.354-0.354l-42,42l0.707,0.707
			L1215,274.707L1256.293,316l-41.646,41.646L1215,358l-0.354,0.354L1256.293,400L1215,441.293l-41.646-41.646l-42-42L1089.707,316
			l41.646-41.646l-0.707-0.707L1089,315.293L1047.707,274l41.646-41.646l42-42l42-42L1173,148l0.354-0.354l-42-42l-42-42l-42-42
			l-42-42L1005-20l-0.354-0.354l-42,42L963,22l-0.354,0.354l42,42L1005,64l0.354,0.354L1047,22.707l41.646,41.646L1130.293,106
			l-41.646,41.646L1089,148l-0.354,0.354L1130.293,190L1089,231.293l-41.646-41.646l-42-42l-0.707,0.707l42,42L1088.293,232
			l-41.646,41.646l-42,42L1005,316l-0.354,0.354L1046.293,358L1005,399.293l-41.646-41.646L963,358l-0.354-0.354L921,399.293
			L879.707,358l41.646-41.646L921,316l0.354-0.354l-42-42l-42-42L795.707,190l41.646-41.646L879,106.707l41.646,41.646L921,148
			l0.354,0.354l42-42l-0.707-0.707L921,147.293l-41.646-41.646L879,106l-0.354-0.354L837,147.293L795.707,106l41.646-41.646
			l-0.707-0.707L795,105.293L753.707,64l41.646-41.646L837-19.293l41.646,41.646l0.707-0.707l-42-42L837-20l-0.354-0.354L795,21.293
			l-41.646-41.646l-0.707,0.707L794.293,22L753,63.293l-41.646-41.646l-0.707,0.707l42,42l42,42L836.293,148L795,189.293
			l-41.646-41.646l-42-42l-42-42l-42-42l-0.707,0.707l42,42L710.293,106L669,147.293l-41.646-41.646l-42-42l-0.707,0.707
			L626.293,106l-41.646,41.646l0.707,0.707L627,106.707L668.293,148l-41.646,41.646L627,190l-0.354,0.354l42,42L669,232l0.354,0.354
			L711,190.707l41.646,41.646l0.707-0.707l-42-42L669.707,148L711,106.707l41.646,41.646l42,42L836.293,232l-41.646,41.646
			L753,315.293l-41.646-41.646l-0.707,0.707l42,42L753,316l0.354,0.354l42-42L837,232.707L878.293,274l-41.646,41.646l-42,42
			L795,358l-0.354,0.354l42,42l42,42l42,42L921,484l0.354,0.354L963,442.707l41.646,41.646L1005,484l0.354,0.354L1047,442.707
			L1088.293,484l-41.646,41.646L1005,567.293l-41.646-41.646L963,526l-0.354-0.354L921,567.293l-41.646-41.646l-42-42L837,484
			l-0.354-0.354L795,525.293l-41.646-41.646L753,484l-0.354-0.354L711,525.293l-41.646-41.646L627.707,442L669,400.707
			l41.646,41.646l0.707-0.707l-42-42L669,400l-0.354-0.354l-42,42L627,442l-0.354,0.354l42,42l42,42L711,526l0.354,0.354
			L753,484.707l41.646,41.646L795,526l0.354,0.354L837,484.707L878.293,526l-41.646,41.646L837,568l-0.354,0.354l42,42l42,42l42,42
			l42,42L1046.293,778l-41.646,41.646l0.707,0.707L1047,778.707l41.646,41.646l0.707-0.707l-42-42l-42-42l-42-42L921.707,652
			l41.646-41.646L1005,568.707l41.646,41.646l42,42L1089,652l0.354,0.354l42-42L1173,568.707l41.646,41.646l42,42l42,42l0.707-0.707
			L1257.707,652l41.646-41.646L1341,568.707l41.646,41.646l42,42l0.707-0.707l-42-42L1341.354,567.646z M963.707,22L1005-19.293
			L1046.293,22L1005,63.293L963.707,22z M627.707,190L669,148.707L710.293,190L669,231.293L627.707,190z M1257.707,484L1299,442.707
			L1340.293,484L1299,525.293L1257.707,484z M1172.293,400l-41.646,41.646L1131,442l-0.354,0.354L1172.293,484L1131,525.293
			l-41.646-41.646L1047.707,442l41.646-41.646L1131,358.707L1172.293,400z M1089.354,567.646L1047.707,526L1089,484.707
			l41.646,41.646L1172.293,568L1131,609.293L1089.354,567.646z M1088.293,400L1047,441.293L1005.707,400L1047,358.707L1088.293,400z
			 M1130.293,358L1089,399.293l-41.646-41.646L1005.707,316L1047,274.707l41.646,41.646L1130.293,358z M1172.293,148L1131,189.293
			L1089.707,148L1131,106.707L1172.293,148z M920.293,316L879,357.293L837.707,316L879,274.707L920.293,316z M795.707,358
			L837,316.707L878.293,358L837,399.293L795.707,358z M879.354,441.646L837.707,400L879,358.707l41.646,41.646L962.293,442
			L921,483.293L879.354,441.646z M963.354,441.646L921.707,400L963,358.707l41.646,41.646L1046.293,442L1005,483.293
			L963.354,441.646z M1004.293,568L963,609.293L921.707,568L963,526.707L1004.293,568z M879.354,609.646L837.707,568L879,526.707
			l41.646,41.646L962.293,610L921,651.293L879.354,609.646z M1047.354,609.646L1005.707,568L1047,526.707l41.646,41.646
			L1130.293,610L1089,651.293L1047.354,609.646z M1298.646,609.646L1257,651.293l-41.646-41.646l-42-42L1131.707,526l41.646-41.646
			L1173,484l0.354-0.354L1131.707,442L1173,400.707l41.646,41.646l42,42l42,42L1340.293,568L1298.646,609.646z"/>
		<path style="fill:#231F20;" d="M1341.354,609.646L1341,610l-0.354-0.354l-42,42L1299,652l-0.354,0.354L1340.293,694L1299,735.293
			l-41.646-41.646l-42-42l-42-42L1173,610l-0.354-0.354l-42,42L1089,693.293l-41.646-41.646l-42-42L1005,610l-0.354-0.354l-42,42
			L963,652l-0.354,0.354l42,42l42,42l42,42l42,42L1131,820l0.354,0.354L1173,778.707l41.646,41.646L1215,820l0.354,0.354
			L1257,778.707l41.646,41.646l0.707-0.707L1257.707,778l41.646-41.646l42-42L1383,652.707l41.646,41.646l0.707-0.707l-42-42
			L1341.354,609.646z M1382.293,652L1341,693.293L1299.707,652L1341,610.707L1382.293,652z M1298.293,736L1257,777.293L1215.707,736
			L1257,694.707L1298.293,736z M1256.293,694L1215,735.293L1173.707,694L1215,652.707L1256.293,694z M1005.354,693.646L963.707,652
			L1005,610.707l41.646,41.646L1088.293,694L1047,735.293L1005.354,693.646z M1089.354,777.646L1047.707,736L1089,694.707
			l41.646,41.646l0.707-0.707L1089.707,694l41.646-41.646L1173,610.707L1214.293,652l-41.646,41.646L1173,694l-0.354,0.354
			L1214.293,736l-41.646,41.646L1131,819.293L1089.354,777.646z M1173.707,778L1215,736.707L1256.293,778L1215,819.293L1173.707,778
			z"/>
		<polygon style="fill:#231F20;" points="711.354,652.354 711,652 711.354,651.646 669.354,609.646 668.646,610.354 710.293,652 
			668.646,693.646 669.354,694.354 		"/>
		<polygon style="fill:#231F20;" points="879.354,693.646 837.354,651.646 795.354,609.646 794.646,610.354 836.646,652.354 
			878.646,694.354 		"/>
		
			<rect x="1025.5" y="643.302" transform="matrix(0.7071 -0.7071 0.7071 0.7071 -175.3744 922.6087)" style="fill:#231F20;" width="1" height="59.397"/>
		<polygon style="fill:#231F20;" points="1383,694 1382.646,693.646 1340.646,735.646 1298.646,777.646 1299,778 1298.646,778.354 
			1340.646,820.354 1341.354,819.646 1299.707,778 1341.354,736.354 1383,694.707 1424.646,736.354 1425.354,735.646 
			1383.354,693.646 		"/>
		<polygon style="fill:#231F20;" points="-2.293,736 39,694.707 80.646,736.354 81.354,735.646 39.354,693.646 -2.646,651.646 
			-3.354,652.354 38.293,694 -3.354,735.646 -3,736 -3.354,736.354 38.293,778 -3.354,819.646 -2.646,820.354 39,778.707 
			80.646,820.354 81.354,819.646 39.354,777.646 		"/>
		<polygon style="fill:#231F20;" points="291.354,735.646 290.646,736.354 332.646,778.354 374.646,820.354 375.354,819.646 
			333.354,777.646 		"/>
		<polygon style="fill:#231F20;" points="459,736.707 500.646,778.354 501.354,777.646 459.354,735.646 459,736 458.646,735.646 
			416.646,777.646 417,778 416.646,778.354 458.646,820.354 459.354,819.646 417.707,778 		"/>
		<path style="fill:#231F20;" d="M711.354,736.354l-0.707-0.707L669,777.293l-41.646-41.646L627,736l-0.354-0.354l-42,42L585,778
			l-0.354,0.354l42,42L627,820l0.354,0.354L669,778.707l41.646,41.646l0.707-0.707L669.707,778L711.354,736.354z M585.707,778
			L627,736.707L668.293,778L627,819.293L585.707,778z"/>
		<path style="fill:#231F20;" d="M921,736.707l41.646,41.646l0.707-0.707l-42-42L921,736l-0.354-0.354L879,777.293l-41.646-41.646
			L837,736l-0.354-0.354l-42,42L753,819.293L711.707,778l41.646-41.646L753,736l0.354-0.354L711.707,694L753,652.707l41.646,41.646
			l0.707-0.707l-42-42l-42-42l-42-42l-42-42l-0.707,0.707L668.293,568l-41.646,41.646L627,610l-0.354,0.354L668.293,652L627,693.293
			l-41.646-41.646l-0.707,0.707L626.293,694L585,735.293l-41.646-41.646l-42-42l-0.707,0.707l42,42L584.293,736L543,777.293
			l-41.646-41.646l-42-42L459,694l-0.354-0.354l-42,42L375,777.293L333.707,736l41.646-41.646L375,694l0.354-0.354L333.707,652
			L375,610.707l41.646,41.646L417,652l0.354,0.354l42-42L459,610l0.354-0.354L417.707,568l41.646-41.646L459,526l0.354-0.354
			L417.707,484l41.646-41.646l42-42L501,400l0.354-0.354l-42-42l-42-42L375.707,274L417,232.707l41.646,41.646l42,42l0.707-0.707
			L459.707,274L501,232.707l41.646,41.646L584.293,316l-41.646,41.646l0.707,0.707L585,316.707L626.293,358l-41.646,41.646
			l0.707,0.707l42-42L627,358l0.354-0.354l-42-42l-42-42l-42-42L501,232l-0.354-0.354L459,273.293l-41.646-41.646L375.707,190
			L417,148.707l41.646,41.646l0.707-0.707l-42-42L417,148l-0.354-0.354L375,189.293l-41.646-41.646l-42-42l-42-42l-42-42l-42-42
			l-0.707,0.707L206.293,22l-41.646,41.646L165,64l-0.354,0.354l42,42l42,42L290.293,190L249,231.293l-41.646-41.646l-42-42l-42-42
			l-42-42l-0.707,0.707l42,42l42,42l42,42l42,42L249,232l0.354,0.354l42-42L291,190l0.354-0.354L249.707,148L291,106.707
			l41.646,41.646L374.293,190l-41.646,41.646L333,232l-0.354,0.354l42,42l42,42l42,42L500.293,400L459,441.293l-41.646-41.646
			l-42-42l-42-42l-42-42l-0.707,0.707L332.293,316l-41.646,41.646L291,358l-0.354,0.354l42,42l42,42l42,42L458.293,526L417,567.293
			l-41.646-41.646l-0.707,0.707l42,42L458.293,610L417,651.293l-41.646-41.646L375,610l-0.354-0.354l-42,42L333,652l-0.354,0.354
			L374.293,694L333,735.293l-41.646-41.646l-42-42L249,652l-0.354-0.354l-42,42l0.707,0.707L249,652.707L290.293,694l-41.646,41.646
			L207,777.293l-41.646-41.646l-42-42l-42-42L39.707,610L81,568.707l41.646,41.646l42,42L165,652l0.354,0.354l42-42L207,610
			l0.354-0.354l-42-42l-42-42l-42-42l-0.707,0.707L122.293,526l-41.646,41.646L39,609.293l-41.646-41.646l-0.707,0.707l42,42l42,42
			l42,42l42,42L206.293,778l-41.646,41.646l0.707,0.707L207,778.707l41.646,41.646L249,820l0.354,0.354L291,778.707l41.646,41.646
			l0.707-0.707l-42-42L249.707,736L291,694.707l41.646,41.646l42,42l42,42l0.707-0.707L375.707,778l41.646-41.646L459,694.707
			l41.646,41.646L542.293,778L501,819.293l-41.646-41.646l-0.707,0.707l42,42L501,820l0.354,0.354L543,778.707l41.646,41.646
			l0.707-0.707L543.707,778l41.646-41.646L627,694.707l41.646,41.646L669,736l0.354,0.354L711,694.707L752.293,736l-41.646,41.646
			L711,778l-0.354,0.354l42,42L753,820l0.354,0.354L795,778.707l41.646,41.646l0.707-0.707L795.707,778L837,736.707l41.646,41.646
			l42,42l0.707-0.707L879.707,778L921,736.707z M207.354,105.646L165.707,64L207,22.707l41.646,41.646L290.293,106L249,147.293
			L207.354,105.646z M333.707,232L375,190.707L416.293,232L375,273.293L333.707,232z M375.354,441.646l-42-42L291.707,358
			L333,316.707l41.646,41.646l42,42L458.293,442L417,483.293L375.354,441.646z M164.646,568.354L206.293,610L165,651.293
			l-41.646-41.646L81.707,568L123,526.707L164.646,568.354z M207.707,778L249,736.707L290.293,778L249,819.293L207.707,778z
			 M627.707,694l41.646-41.646L669,652l0.354-0.354L627.707,610L669,568.707l41.646,41.646L752.293,652l-41.646,41.646L669,735.293
			L627.707,694z"/>
		<polygon style="fill:#231F20;" points="1131,778 1131.354,778.354 1173.354,736.354 1173,736 1173.354,735.646 1131.707,694 
			1173.354,652.354 1172.646,651.646 1130.646,693.646 1131,694 1130.646,694.354 1172.293,736 1131,777.293 1089.354,735.646 
			1088.646,736.354 1130.646,778.354 		"/>
		<polygon style="fill:#231F20;" points="1383,736 1382.646,735.646 1340.646,777.646 1341,778 1340.646,778.354 1382.646,820.354 
			1383.354,819.646 1341.707,778 1383,736.707 1424.646,778.354 1425.354,777.646 1383.354,735.646 		"/>
		<path style="fill:#231F20;" d="M165.354,778.354L165,778l0.354-0.354l-42-42l-42-42l-42-42l-42-42l-0.707,0.707l42,42l42,42
			L122.293,736L81,777.293l-41.646-41.646l-0.707,0.707l42,42l42,42L123,820l0.354,0.354L165.354,778.354z M81.707,778L123,736.707
			L164.293,778L123,819.293L81.707,778z"/>
		
			<rect x="857.5" y="769.302" transform="matrix(0.7071 -0.7071 0.7071 0.7071 -313.6759 840.7193)" style="fill:#231F20;" width="1" height="59.397"/>
		<path style="fill:#231F20;" d="M1005.354,778.354L1005,778l0.354-0.354l-42-42l-42-42l-42-42l-42-42L795.707,568l41.646-41.646
			l-0.707-0.707L795,567.293l-41.646-41.646L753,526l-0.354-0.354L711,567.293l-41.646-41.646l-42-42L585.707,442l41.646-41.646
			L669,358.707l41.646,41.646L752.293,442L711,483.293l-41.646-41.646l-0.707,0.707l42,42L711,484l0.354,0.354L753,442.707
			l41.646,41.646L795,484l0.354,0.354L837,442.707l41.646,41.646l42,42L921,526l0.354,0.354L963,484.707l41.646,41.646L1005,526
			l0.354,0.354l42-42l-0.707-0.707L1005,525.293l-41.646-41.646L963,484l-0.354-0.354L921,525.293l-41.646-41.646l-42-42l-42-42
			L753.707,358l41.646-41.646l42-42l-0.707-0.707l-42,42L753,357.293l-41.646-41.646L669.707,274L711,232.707l41.646,41.646L753,274
			l0.354,0.354l42-42L795,232l0.354-0.354l-42-42l-42-42l-0.707,0.707l42,42L794.293,232L753,273.293l-41.646-41.646L711,232
			l-0.354-0.354L669,273.293l-41.646-41.646L585.707,190l41.646-41.646l-0.707-0.707L585,189.293L543.707,148l41.646-41.646L585,106
			l0.354-0.354L543.707,64L585,22.707l41.646,41.646l42,42l0.707-0.707l-42-42L585.707,22L627-19.293l41.646,41.646l42,42l42,42
			l42,42l0.707-0.707l-42-42l-42-42L669.707,22L711-19.293l41.646,41.646l0.707-0.707l-42-42L711-20l-0.354-0.354L669,21.293
			l-41.646-41.646L627-20l-0.354-0.354L585,21.293l-41.646-41.646l-0.707,0.707L584.293,22L543,63.293l-41.646-41.646l-42-42
			l-0.707,0.707l42,42l42,42L584.293,106l-41.646,41.646L543,148l-0.354,0.354L584.293,190L543,231.293l-41.646-41.646l-42-42
			l-42-42l-42-42l-42-42l-42-42l-0.707,0.707L332.293,22L291,63.293l-41.646-41.646l-42-42l-0.707,0.707l42,42l42,42l42,42l42,42
			L375,148l0.354,0.354L417,106.707l41.646,41.646L500.293,190L459,231.293l-41.646-41.646l-0.707,0.707l42,42L459,232l0.354,0.354
			L501,190.707l41.646,41.646l42,42l42,42L668.293,358l-41.646,41.646L585,441.293L543.707,400l41.646-41.646l-0.707-0.707
			L543,399.293L501.707,358l41.646-41.646L543,316l0.354-0.354l-42-42l-0.707,0.707L542.293,316L501,357.293l-41.646-41.646l-42-42
			l-0.707,0.707l42,42l42,42L542.293,400l-41.646,41.646l-42,42L459,484l-0.354,0.354L500.293,526l-41.646,41.646L459,568
			l-0.354,0.354L500.293,610l-41.646,41.646L417,693.293l-41.646-41.646l-0.707,0.707L416.293,694l-41.646,41.646l0.707,0.707l42-42
			L459,652.707l41.646,41.646l42,42l0.707-0.707l-42-42L459.707,652L501,610.707l41.646,41.646l42,42l0.707-0.707L543.707,652
			L585,610.707l41.646,41.646l0.707-0.707L585.707,610l41.646-41.646L627,568l0.354-0.354L585.707,526L627,484.707l41.646,41.646
			l42,42l42,42l42,42L836.293,694L795,735.293l-41.646-41.646l-0.707,0.707L794.293,736l-41.646,41.646l0.707,0.707l42-42
			L837,694.707l41.646,41.646L879,736l0.354,0.354L921,694.707l41.646,41.646L1004.293,778L963,819.293l-41.646-41.646l-0.707,0.707
			l42,42L963,820l0.354,0.354L1005.354,778.354z M333.354,105.646L291.707,64L333,22.707l41.646,41.646L416.293,106L375,147.293
			L333.354,105.646z M836.293,442L795,483.293L753.707,442L795,400.707L836.293,442z M752.646,358.354L794.293,400L753,441.293
			l-41.646-41.646l-42-42L627.707,316L669,274.707l41.646,41.646L752.646,358.354z M543.707,232L585,190.707L626.293,232
			L585,273.293L543.707,232z M585.707,274L627,232.707L668.293,274L627,315.293L585.707,274z M626.293,484l-41.646,41.646L585,526
			l-0.354,0.354L626.293,568L585,609.293l-41.646-41.646l-42-42L459.707,484L501,442.707l41.646,41.646l0.707-0.707L501.707,442
			L543,400.707l41.646,41.646L626.293,484z M501,609.293L459.707,568L501,526.707L542.293,568L501,609.293z M501.707,610
			L543,568.707L584.293,610L543,651.293L501.707,610z M711.707,568L753,526.707L794.293,568L753,609.293L711.707,568z
			 M837.354,693.646l-42-42L753.707,610L795,568.707l41.646,41.646l42,42L920.293,694L879,735.293L837.354,693.646z"/>
		
			<rect x="1403.5" y="769.302" transform="matrix(0.7071 -0.7071 0.7071 0.7071 -153.7562 1226.7996)" style="fill:#231F20;" width="1" height="59.397"/>
	</g>
</g>
</svg>
